<svg width="24" height="29" viewBox="0 0 24 29" fill="#fff" xmlns="http://www.w3.org/2000/svg">
<path stroke="#6b6ec8"
d="M12.0409 26.0404C12.0093 25.9789 11.9773 25.9172 11.9449 25.8553C11.6776 25.345 11.3698 24.7998 11.0642 24.3602C10.9126 24.1421 10.7429 23.9228 10.5615 23.7411C10.4095 23.5888 10.1231 23.331 9.7271 23.2461C4.75554 22.179 1 17.6686 1 12.2431C1 6.01469 5.94368 1 12 1C18.0563 1 23 6.01469 23 12.2431C23 17.5189 19.2825 22.0423 14.4895 23.2543C14.1303 23.3451 13.8513 23.5664 13.6738 23.7297C13.4768 23.9109 13.2906 24.1292 13.1219 24.3497C12.7832 24.7922 12.4452 25.3359 12.1528 25.8438C12.1149 25.9096 12.0776 25.9752 12.0409 26.0404Z" fill="white" stroke-width="2"/>
</svg>
