<svg width="15" height="15" viewBox="0 0 15 15" fill="inherit" xmlns="http://www.w3.org/2000/svg">
<path d="M7.0966 7.0966C7.0966 11.0159 7.0966 14.1932 7.0966 14.1932C3.17726 14.1932 0 11.0159 0 7.0966C0 3.17726 3.17726 0 7.0966 0C7.0966 0 7.0966 3.17726 7.0966 7.0966Z" fill="inherit"/>
<path d="M7.09578 7.09676C7.09578 3.17741 7.09578 0.00015831 7.09578 0.00015831C11.0151 0.00015831 14.1924 3.17741 14.1924 7.09676C14.1924 11.0161 11.0151 14.1934 7.09578 14.1934C7.09578 14.1934 7.09578 11.0161 7.09578 7.09676Z" fill="#DCDCDC"/>
<path d="M4.7324 10.8052C4.41192 10.9654 4.03736 10.7066 4.09856 10.3671L4.55012 7.86278L2.63728 6.08919C2.37801 5.84879 2.52108 5.42995 2.87938 5.38043L5.52287 5.01505L6.70507 2.73651C6.86531 2.42767 7.32829 2.42767 7.48853 2.73651L8.67073 5.01505L11.3142 5.38043C11.6725 5.42995 11.8156 5.84879 11.5563 6.08919L9.64348 7.86278L10.095 10.3671C10.1562 10.7066 9.78168 10.9654 9.46121 10.8052L7.0968 9.62278L4.7324 10.8052Z" fill="white"/>
</svg>
